<svg width="107.9" height="29.9" viewBox="0 0 83 23" fill="none" xmlns="http://www.w3.org/2000/svg">
<g clip-path="url(#clip0_315_1456)">
<path d="M0.788086 2.81355C0.788086 1.4746 1.87206 0.390625 3.21101 0.390625H8.05561C9.3933 0.390625 10.4773 1.4746 10.4773 2.81355V20.5766C10.4773 21.9156 9.3933 22.9996 8.05561 22.9996H3.21101C1.87206 22.9996 0.788086 21.9156 0.788086 20.5766V2.81355ZM17.7448 0.390625C20.8661 0.390625 23.397 2.92157 23.397 6.04286C23.397 9.16415 20.8661 11.6951 17.7448 11.6951C14.6235 11.6951 12.0926 9.16415 12.0926 6.04286C12.0926 2.92157 14.6235 0.390625 17.7448 0.390625ZM23.3017 13.0039C23.3017 11.925 21.9967 11.3849 21.2342 12.1473L12.4494 20.9321C11.687 21.6945 12.2271 22.9996 13.306 22.9996H20.8788C22.2177 22.9996 23.3017 21.9156 23.3017 20.5766V13.0039Z" fill="url(#paint0_radial_315_1456)"></path>
</g>
<path d="M36.535 5H34.1084V18.8102H36.535V5Z" fill="currentColor"></path>
<path d="M42.9139 9.39952C40.0532 9.39952 38.179 11.3724 38.179 14.2725C38.179 17.1727 40.1124 19.1061 43.0915 19.1061C45.0052 19.1061 46.2284 18.2183 47.0372 17.4686L45.814 15.7127C45.3011 16.2257 44.3936 16.9556 43.0915 16.9556C41.6907 16.9556 40.6648 16.1468 40.5267 14.746H47.3332V14.2725C47.3332 11.1554 45.6759 9.39952 42.9139 9.39952ZM42.7955 11.3527C43.9793 11.3527 44.8079 12.0235 44.8868 13.1874H40.5859C40.7832 11.9248 41.6315 11.3527 42.7955 11.3527Z" fill="currentColor"></path>
<path d="M53.6492 11.7275V9.69545H51.7749V6.04563H49.3483V9.69545H47.6713V11.7275H49.3483V16.127C49.3483 17.9618 50.3742 18.8299 52.0906 18.8299H53.1559V16.5808H52.7416C52.0314 16.5808 51.7749 16.2849 51.7749 15.5549V11.7275H53.6492Z" fill="currentColor"></path>
<path d="M60.2768 11.7275V9.69545H58.4026V6.04563H55.9759V9.69545H54.299V11.7275H55.9759V16.127C55.9759 17.9618 57.0018 18.8299 58.7182 18.8299H59.7836V16.5808H59.3693C58.659 16.5808 58.4026 16.2849 58.4026 15.5549V11.7275H60.2768Z" fill="currentColor"></path>
<path d="M67.2407 9.41925H67.1421C65.6427 9.41925 64.5971 10.2084 64.1236 11.6289H64.0841V9.69545H61.697V18.8102H64.1039V15.0814C64.1039 12.8521 65.0311 12.0235 66.9645 12.0235H67.2407V9.41925Z" fill="currentColor"></path>
<path d="M71.1417 5.11837H68.3796V7.78176H71.1417V5.11837ZM68.5375 18.8102H70.9641V9.69545H68.5375V18.8102Z" fill="currentColor"></path>
<path d="M76.9879 19.1061C78.4675 19.1061 79.4539 18.4748 80.0261 17.5278H80.0655V18.8102H82.4725V9.69545H80.0655V10.9778H80.0261C79.4539 10.0308 78.4675 9.39952 76.9879 9.39952C74.6007 9.39952 72.6081 11.1357 72.6081 14.2528C72.6081 17.37 74.6007 19.1061 76.9879 19.1061ZM77.5994 16.8175C76.1395 16.8175 75.1333 15.7916 75.1333 14.2528C75.1333 12.714 76.1395 11.6881 77.5994 11.6881C79.0594 11.6881 80.0655 12.714 80.0655 14.2528C80.0655 15.7916 79.0594 16.8175 77.5994 16.8175Z" fill="currentColor"></path>
<defs>
<radialGradient id="paint0_radial_315_1456" cx="0" cy="0" r="1" gradientUnits="userSpaceOnUse" gradientTransform="translate(17.6192 0.390624) rotate(118.072) scale(25.6235 28.4926)">
<stop stop-color="#FFCE48"></stop>
<stop offset="1" stop-color="#A56BF8"></stop>
</radialGradient>
<clipPath id="clip0_315_1456">
<rect width="22.6089" height="22.6089" fill="white" transform="translate(0.788086 0.390625)"></rect>
</clipPath>
</defs>
</svg>
