<svg viewBox="0 0 232.26 86.59" xmlns="http://www.w3.org/2000/svg" class="w-52 h-auto text-primary md:mb-2 md:w-44" data-v-e9944fc6=""><path d="M44.11 32.16a16.16 16.16 0 0 0-.94-4.26q-.28-.75-.63-1.48A14.54 14.54 0 0 0 38.81 22c-1.82-1.53-3.76-3-5-5a9.53 9.53 0 0 1-1.35-4.11c-.05-.59-.19-3.78.4-4.12-.71.41-2.07 1.24-2.76 1.69a55.12 55.12 0 0 0-6.64 5.09 14.35 14.35 0 0 0-3.37 3.77 8.7 8.7 0 0 0-1 4.61c0 .46.1.92.16 1.37a9.18 9.18 0 0 1-.54-3.39 11.09 11.09 0 0 1 .78-3C18.19 20 18.19 20 17.7 20.4a23.86 23.86 0 0 0-2.32 2.25 23.71 23.71 0 0 0-1.5 2A11.2 11.2 0 0 0 12 31.22a1 1 0 0 0 .51.83l5.24 3a12.43 12.43 0 0 0 1.79 1.17A22.29 22.29 0 0 1 23 39.34a23 23 0 0 1 5.42 11.33A4.83 4.83 0 0 0 27 52.12a5 5 0 0 0-.65 3.71 5.34 5.34 0 0 0 2.06 3.29c.15.1.3.19.45.27a5.16 5.16 0 0 0 2.57-5.49 5 5 0 0 0-2.16-3.2A21.83 21.83 0 0 1 35 39.34a18.37 18.37 0 0 1 6.89-5.25A8.41 8.41 0 0 0 44 33c.21-.2.13-.55.11-.84Z" fill="#000" data-v-e9944fc6=""></path><path d="M17.28 44.08a4.73 4.73 0 0 0-2.48 0 5.07 5.07 0 0 0 .39 4.34 5.16 5.16 0 0 0 5.59 2.35c.06-.16.11-.33.16-.51a5.34 5.34 0 0 0-.68-3.82 5 5 0 0 0-2.98-2.36Zm22.88 0a5 5 0 0 0-3 2.31 5.34 5.34 0 0 0-.68 3.82c0 .17.1.34.16.51a5.16 5.16 0 0 0 5.59-2.35 5.07 5.07 0 0 0 .42-4.37 4.73 4.73 0 0 0-2.49.08Z" data-v-e9944fc6=""></path><path d="M74.14 38.77a8.81 8.81 0 0 1 3.43 1.57 11.06 11.06 0 0 1 4.25 6.82A10.71 10.71 0 0 1 71.3 59.79c-2.9 0-4.88-.57-6.8-2.49v16.57H59V52.28c0-3.37.84-7.18 2.94-9.63 3.53-4.1 7.49-5.01 12.2-3.88Zm.11 6.45a4.94 4.94 0 0 0-3.7-1.64 5 5 0 0 0-3.75 1.64 5.6 5.6 0 0 0 0 7.73 5.18 5.18 0 0 0 3.75 1.59 5.07 5.07 0 0 0 3.7-1.59 5.6 5.6 0 0 0 0-7.73Z" fill="#000" data-v-e9944fc6=""></path><path d="M88.21 40.3a10.68 10.68 0 0 1 16.72 8.85v10.08h-6.18V49.16a5.74 5.74 0 0 0-1.55-3.89 5.07 5.07 0 0 0-3.7-1.59 5.17 5.17 0 0 0-3.75 1.59 5.74 5.74 0 0 0-1.55 3.89v10.07H82V24.37h6.23Z" fill="#000" data-v-e9944fc6=""></path><path d="M123.77 56a10.58 10.58 0 0 1-8.1 3.75 10.73 10.73 0 1 1 10.73-10.73 8.87 8.87 0 0 1-.2 1.98h-15.08a5.91 5.91 0 0 0 1.17 2 4.82 4.82 0 0 0 3.61 1.64 5 5 0 0 0 3.47-1.5Zm-2.39-8.62a5.55 5.55 0 0 0-1.27-2.3 4.84 4.84 0 0 0-3.56-1.59 4.94 4.94 0 0 0-3.61 1.59 6.89 6.89 0 0 0-1.27 2.3Zm51.06 1.73a11.18 11.18 0 1 1-11.2-10.68 10.89 10.89 0 0 1 11.2 10.68Zm-5.9 0a5.5 5.5 0 0 0-1.5-3.84 5 5 0 0 0-3.75-1.64 4.84 4.84 0 0 0-3.65 1.64 5.3 5.3 0 0 0-1.64 3.84 5.41 5.41 0 0 0 1.64 3.89 5 5 0 0 0 3.65 1.59A5.18 5.18 0 0 0 165 53a5.85 5.85 0 0 0 1.54-3.94Zm19.17-10.63a10.32 10.32 0 0 1 4.57 1.28 10.52 10.52 0 0 1 4.41 5 11.32 11.32 0 0 1 .9 4.46v10h-5.72v-10c0-2.9-2.06-5.48-4.87-5.48s-4.87 2.58-4.87 5.48v10h-5.9V51c0-2.82.25-5.87 1.75-8.33a8.74 8.74 0 0 1 5.38-3.85 11.69 11.69 0 0 1 1.57-.28 16.35 16.35 0 0 1 2.78-.06Z" fill="#000" data-v-e9944fc6=""></path><path d="M214.43 56a10.58 10.58 0 0 1-8.1 3.75 10.73 10.73 0 1 1 10.73-10.73 8.93 8.93 0 0 1-.19 1.92h-15.09a6 6 0 0 0 1.17 2 4.82 4.82 0 0 0 3.61 1.64 5 5 0 0 0 3.47-1.5Zm-3-8.62a5.56 5.56 0 0 0-1.26-2.3 4.84 4.84 0 0 0-3.56-1.59 4.94 4.94 0 0 0-3.61 1.64 6.86 6.86 0 0 0-1.26 2.3Zm-76.85 12.79a8.81 8.81 0 0 1-3.43-1.57 11.06 11.06 0 0 1-4.25-6.82 10.71 10.71 0 0 1 10.52-12.63c2.9 0 4.88.57 6.8 2.49V25.07h5.48v21.59c0 3.37-.84 7.18-2.94 9.63-3.51 4.09-7.48 5.01-12.18 3.88Zm-.11-6.45a4.94 4.94 0 0 0 3.7 1.64 5 5 0 0 0 3.75-1.64 5.6 5.6 0 0 0 0-7.73 5.18 5.18 0 0 0-3.75-1.59 5.07 5.07 0 0 0-3.7 1.59 5.6 5.6 0 0 0 0 7.73Z" fill="#000" data-v-e9944fc6=""></path></svg>
