<svg width="161" height="37" viewBox="0 0 161 37" fill="none" xmlns="http://www.w3.org/2000/svg">
<g clip-path="url(#clip0_3256_732)">
<path d="M128.883 27.2697C128.846 25.7229 129.342 24.2105 130.287 22.989C131.308 21.7262 132.647 20.7603 134.164 20.1911C135.992 19.4952 137.935 19.158 139.889 19.1976C141.106 19.2048 142.321 19.2951 143.526 19.4679C144.687 19.6227 145.828 19.8994 146.931 20.2934V18.416C146.975 17.56 146.839 16.7042 146.534 15.904C146.228 15.1037 145.759 14.3767 145.156 13.77C143.76 12.5667 141.951 11.9586 140.115 12.0752C138.72 12.0713 137.338 12.3341 136.041 12.8496C134.595 13.4358 133.213 14.1702 131.917 15.0411L130.338 11.9584C131.888 10.8572 133.582 9.97714 135.372 9.34315C137.057 8.75978 138.827 8.46589 140.609 8.47385C143.897 8.47385 146.497 9.38698 148.407 11.2132C150.318 13.0395 151.273 15.5817 151.273 18.8397V29.7607C151.236 30.1718 151.35 30.5825 151.593 30.9149C151.733 31.0539 151.899 31.1631 152.081 31.2359C152.264 31.3087 152.459 31.3436 152.655 31.3386V34.7208C152.226 34.7939 151.855 34.8377 151.542 34.8743C151.23 34.9108 150.975 34.9254 150.779 34.9254C150.357 34.957 149.934 34.8977 149.538 34.7515C149.141 34.6054 148.781 34.3757 148.48 34.078C148.006 33.5891 147.705 32.958 147.622 32.281L147.52 30.6373C146.376 32.1221 144.874 33.2889 143.155 34.0269C141.463 34.7978 139.63 35.2059 137.772 35.2249C136.176 35.2513 134.598 34.8852 133.175 34.1584C131.886 33.5024 130.796 32.5109 130.018 31.2875C129.263 30.0857 128.869 28.6907 128.883 27.2697V27.2697ZM145.665 29.0887C146.04 28.6663 146.355 28.1944 146.603 27.6861C146.807 27.3128 146.927 26.8986 146.952 26.4735V23.2739C145.913 22.8721 144.839 22.5665 143.744 22.3607C142.654 22.1481 141.546 22.0404 140.435 22.0393C138.562 21.9515 136.704 22.4054 135.081 23.3469C134.451 23.7018 133.927 24.221 133.566 24.8497C133.205 25.4785 133.02 26.1934 133.03 26.9191C133.034 27.7637 133.265 28.5915 133.699 29.3151C134.172 30.114 134.854 30.7682 135.67 31.2071C136.668 31.7289 137.783 31.9806 138.907 31.9376C140.232 31.9437 141.544 31.6673 142.755 31.1268C143.857 30.6737 144.849 29.9886 145.665 29.1179V29.0887Z" fill="black"/>
<path d="M156.409 35.3052V9.29932H160.773V35.3052H156.409Z" fill="black"/>
<path d="M43.5503 35.3053V8.72955H51.079V12.8569C51.079 12.8569 54.0978 9.69381 57.1093 8.79529C59.648 8.06478 63.8379 8.46656 65.46 9.03636C64.6577 10.0043 63.9097 11.0164 63.2196 12.0679C62.4925 13.1585 61.8644 14.3125 61.3429 15.5159C59.5169 15.454 57.7029 15.8348 56.0545 16.6263C54.5506 17.5842 53.1723 18.7278 51.9519 20.0304V35.3053H43.5503Z" fill="black"/>
<path d="M77.717 35.8166C75.5555 35.8518 73.4065 35.4802 71.3812 34.7209C69.6626 34.0797 68.0966 33.0843 66.784 31.7988C65.5691 30.5832 64.6137 29.1316 63.9762 27.5327C63.3333 25.9056 63.0074 24.1697 63.016 22.4192C62.9943 19.9598 63.5711 17.5324 64.6963 15.3479C65.8287 13.2164 67.5319 11.4453 69.6136 10.2344C72.0905 8.86248 74.8898 8.18619 77.717 8.27663C80.5448 8.1824 83.3466 8.84549 85.835 10.1979C87.9091 11.3826 89.6123 13.1259 90.7523 15.231C91.8714 17.3312 92.4491 19.6793 92.4326 22.0612C92.4326 22.5726 92.4326 23.0912 92.3599 23.6172C92.3599 23.8291 92.309 24.0263 92.2871 24.2235H71.9995L72.0796 25.2755C72.1167 26.2799 72.4525 27.2502 73.0437 28.0614C73.6349 28.8725 74.4544 29.4873 75.3966 29.8265C76.2443 30.1408 77.1407 30.3016 78.0444 30.3013C79.2373 30.3013 80.3794 30.0456 82.067 28.6577H91.0433C90.2507 29.9799 89.2842 31.1888 88.17 32.2518C86.8322 33.3844 85.302 34.2653 83.6527 34.8524C81.744 35.5137 79.736 35.8399 77.717 35.8166ZM77.557 13.7481C76.6021 13.7335 75.6573 13.9463 74.8001 14.369C73.995 14.7757 73.3083 15.3848 72.807 16.1369C72.2793 16.9459 71.9525 17.8703 71.8541 18.8324L71.7231 19.9647H83.3618L83.2236 18.8616C83.1279 17.8977 82.8036 16.9709 82.2779 16.1588C81.7716 15.4101 81.083 14.8041 80.2775 14.3983C79.4341 13.9699 78.5021 13.7472 77.557 13.7481V13.7481Z" fill="black"/>
<path d="M100.965 35.3052L92.0179 8.72949H100.529L106.384 28.9864L112.306 8.72949H119.834L110.843 35.3052H100.965Z" fill="black"/>
<path d="M17.0434 21.8347H20.6004C20.5786 20.7546 20.245 19.704 19.6402 18.8105C19.1871 18.1431 18.5919 17.5852 17.8977 17.1772C17.2036 16.7692 16.4278 16.5213 15.6264 16.4514C14.8251 16.3815 14.0184 16.4913 13.2645 16.773C12.5107 17.0546 11.8286 17.5011 11.2677 18.08C10.5153 18.8515 10.0088 19.8306 9.81285 20.8924C9.6075 21.9549 9.71882 23.0546 10.1329 24.0538C10.5469 25.0531 11.2453 25.9074 12.1406 26.51C13.0349 27.1073 14.0853 27.425 15.1594 27.4231H29.0384C28.7588 28.1259 28.4282 28.8071 28.0491 29.4612H15.1448C13.8457 29.4697 12.5667 29.1392 11.433 28.5021C10.2993 27.8649 9.34991 26.9429 8.67777 25.8264C8.00564 24.71 7.63383 23.4373 7.59877 22.1331C7.56371 20.8289 7.8666 19.538 8.47778 18.3867C9.08895 17.2355 9.98744 16.2634 11.0852 15.5657C12.183 14.868 13.4424 14.4687 14.7401 14.4068C16.0378 14.345 17.3292 14.6227 18.4879 15.2128C19.6465 15.8029 20.6326 16.6852 21.3496 17.7731C22.1652 19.0133 22.6026 20.4655 22.6081 21.9516H26.1579C26.172 19.7576 25.5351 17.6091 24.3284 15.7801C23.1218 13.9511 21.4001 12.5243 19.3828 11.6819C17.3655 10.8394 15.1441 10.6194 13.0018 11.0498C10.8595 11.4802 8.89341 12.5417 7.35419 14.0987C5.79654 15.6479 4.73262 17.6271 4.29761 19.7849C3.86261 21.9427 4.07617 24.1816 4.91114 26.2173C5.74612 28.2529 7.16482 29.9933 8.98699 31.2173C10.8092 32.4414 12.9525 33.0939 15.1448 33.0918H25.1831C23.2756 34.8414 20.951 36.0673 18.4339 36.6512C15.9168 37.2351 13.2923 37.1571 10.8139 36.4249C8.33554 35.6927 6.08711 34.331 4.28583 32.4713C2.48455 30.6117 1.1913 28.3169 0.531042 25.8087C-0.388235 22.4491 -0.130434 18.8743 1.26129 15.6827C2.65301 12.4912 5.09419 9.87656 8.17617 8.2766C11.2478 6.68982 14.7704 6.21575 18.1496 6.93439C21.5289 7.65304 24.5578 9.52038 26.7252 12.2213C28.0154 13.8273 28.9669 15.6798 29.5221 17.6664C30.0773 19.6531 30.2246 21.7323 29.955 23.7779H15.1521C14.78 23.7773 14.4161 23.6682 14.1046 23.4638C13.7829 23.261 13.5294 22.9658 13.3772 22.6164C13.2306 22.2727 13.1878 21.8934 13.2542 21.5256C13.3206 21.1577 13.4932 20.8176 13.7505 20.5474C14.0079 20.2773 14.3386 20.0891 14.7016 20.0063C15.0646 19.9235 15.4439 19.9496 15.7922 20.0815C16.138 20.2156 16.4384 20.4463 16.6578 20.7463C16.8953 21.0603 17.03 21.4406 17.0434 21.8347Z" fill="black"/>
<path d="M160.759 0H156.394V4.38302H160.759V0Z" fill="black"/>
</g>
<defs>
<clipPath id="clip0_3256_732">
<rect width="160.759" height="37" fill="white"/>
</clipPath>
</defs>
</svg>
