<svg id="Layer_1" data-name="Layer 1" xmlns="http://www.w3.org/2000/svg" viewBox="0 0 402.92 168.67"><defs><style>.cls-1{fill:#121226;}.cls-2{fill:#49e0ea;}</style></defs><path class="cls-1" d="M370.07,152.16h27V44.1h-27ZM353.64,57.83C343.29,46.35,328.2,41.4,314.47,41.4c-32.65,0-58.76,22.73-58.76,56.73s26.11,56.73,58.76,56.73c9.46,0,27.91-4.05,38.94-15.08l-18-19.37a25.88,25.88,0,0,1-20.93,10.13c-19.81,0-31.75-15.52-31.75-32.41s11.94-32.42,31.75-32.42c7.21,0,14.18,4.27,20.48,10.8ZM152.16,98.13c0-16.89,11.94-32.42,31.74-32.42s31.74,15.53,31.74,32.42-11.93,32.41-31.74,32.41S152.16,115,152.16,98.13m-27,0c0,34,26.11,56.73,58.75,56.73s58.76-22.74,58.76-56.73S216.55,41.4,183.9,41.4s-58.75,22.73-58.75,56.73M50,152.16H78.78L121.32,44.1H93.63l-29,75.64h-.45L35.32,44.1H5.84Z"/><rect class="cls-2" x="370.08" y="13.81" width="26.96" height="18.22"/></svg>