<svg version="1.1" id="Layer_1" xmlns="http://www.w3.org/2000/svg" x="0" y="0" viewBox="0 0 1536 1536" style="enable-background:new 0 0 1536 1536" xml:space="preserve"><g id="top_logo"><g id="icon"><linearGradient id="XMLID_2_" gradientUnits="userSpaceOnUse" x1="589.372" y1="-79.474" x2="1662.214" y2="993.368"><stop offset="0" style="stop-color:#00cdfe"/><stop offset="1" style="stop-color:#00d7c4"/></linearGradient><path id="XMLID_24_" d="M1518 874.6c0 55.4-44.9 100.4-100.4 100.4s-100.4-44.9-100.4-100.4V622.9c0-55.4 44.9-100.4 100.4-100.4s100.4 45 100.4 100.4v251.7z" style="fill:url(#XMLID_2_)"/><linearGradient id="XMLID_3_" gradientUnits="userSpaceOnUse" x1="-60.233" y1="570.13" x2="1012.61" y2="1642.972"><stop offset="0" style="stop-color:#00cdfe"/><stop offset="1" style="stop-color:#00d7c4"/></linearGradient><path id="XMLID_16_" d="M218.8 874.6c0 55.4-44.9 100.4-100.4 100.4S18 930.1 18 874.6V622.9c0-55.4 44.9-100.4 100.4-100.4s100.4 45 100.4 100.4v251.7z" style="fill:url(#XMLID_3_)"/><linearGradient id="XMLID_4_" gradientUnits="userSpaceOnUse" x1="102.168" y1="407.729" x2="1175.011" y2="1480.571"><stop offset="0" style="stop-color:#00cdfe"/><stop offset="1" style="stop-color:#00d7c4"/></linearGradient><path id="XMLID_88_" d="M342.8 293c0-55.4 44.9-100.4 100.4-100.4s100.4 45 100.4 100.4v911.5c0 55.4-44.9 100.4-100.4 100.4s-100.4-44.9-100.4-100.4V293z" style="fill:url(#XMLID_4_)"/><linearGradient id="XMLID_5_" gradientUnits="userSpaceOnUse" x1="426.971" y1="82.927" x2="1499.813" y2="1155.769"><stop offset="0" style="stop-color:#00cdfe"/><stop offset="1" style="stop-color:#00d7c4"/></linearGradient><path id="XMLID_17_" d="M992.4 293c0-55.4 44.9-100.4 100.4-100.4 55.4 0 100.4 45 100.4 100.4v911.5c0 55.4-44.9 100.4-100.4 100.4-55.4 0-100.4-44.9-100.4-100.4V293z" style="fill:url(#XMLID_5_)"/><linearGradient id="XMLID_6_" gradientUnits="userSpaceOnUse" x1="299.418" y1="210.479" x2="1372.261" y2="1283.322"><stop offset="0" style="stop-color:#00cdfe"/><stop offset="1" style="stop-color:#00d7c4"/></linearGradient><path id="XMLID_15_" d="M667.6 153.6c0-55.4 44.9-100.4 100.4-100.4s100.4 45 100.4 100.4v1050.9c0 55.4-44.9 100.4-100.4 100.4s-100.4-44.9-100.4-100.4V153.6z" style="fill:url(#XMLID_6_)"/><g id="XMLID_86_"><linearGradient id="XMLID_7_" gradientUnits="userSpaceOnUse" x1="-63.589" y1="573.486" x2="1009.253" y2="1646.329"><stop offset="0" style="stop-color:#00cdfe"/><stop offset="1" style="stop-color:#00d7c4"/></linearGradient><path id="XMLID_20_" d="M868.4 1204.5c0 151.8-121.7 279.2-273.5 278.3-17.3-.1-34.1-1.8-50.5-5-17.2-3.4-21.3-26.1-6.3-35.3 77.7-47.8 129.5-133.6 129.5-231.6" style="fill:url(#XMLID_7_)"/></g></g></g></svg>