<?xml version="1.0" encoding="UTF-8" standalone="no"?>
<!DOCTYPE svg PUBLIC "-//W3C//DTD SVG 1.1//EN" "http://www.w3.org/Graphics/SVG/1.1/DTD/svg11.dtd">
<svg width="100%" height="100%" viewBox="0 0 981 148" version="1.1" xmlns="http://www.w3.org/2000/svg" xmlns:xlink="http://www.w3.org/1999/xlink" xml:space="preserve" xmlns:serif="http://www.serif.com/" style="fill-rule:evenodd;clip-rule:evenodd;stroke-linejoin:round;stroke-miterlimit:2;">
    <g transform="matrix(1,0,0,1,-273.144,-526.341)">
        <g transform="matrix(1.29333,0,0,1,0,0)">
            <g transform="matrix(0.594247,0,0,0.768559,-338.737,934.312)">
                <path d="M1169.61,-376.772L1169.61,-390.565L1232.81,-481.176L1171.18,-481.176L1171.18,-500.73L1260.57,-500.73L1260.57,-486.937L1197.02,-396.326L1261.97,-396.326L1261.97,-376.772L1169.61,-376.772Z" style="fill:white;fill-rule:nonzero;"/>
                <path d="M1311.2,-375.026C1298.17,-375.026 1287.46,-379.304 1279.08,-387.858C1270.7,-396.413 1266.51,-407.267 1266.51,-420.419C1266.51,-433.571 1270.64,-444.425 1278.9,-452.98C1287.17,-461.535 1297.99,-465.812 1311.38,-465.812C1324.88,-465.812 1335.76,-461.127 1344.02,-451.758C1352.29,-442.388 1355.95,-430.371 1355.02,-415.705L1285.54,-415.705C1285.77,-408.954 1288.33,-403.309 1293.22,-398.77C1298.11,-394.231 1304.33,-391.961 1311.9,-391.961C1322.61,-391.961 1329.94,-396.035 1333.9,-404.182L1353.98,-404.182C1351.3,-395.686 1346.18,-388.702 1338.61,-383.232C1331.05,-377.761 1321.91,-375.026 1311.2,-375.026ZM1310.85,-449.75C1304.57,-449.75 1299.18,-447.975 1294.7,-444.425C1290.22,-440.875 1287.34,-435.841 1286.06,-429.323L1334.42,-429.323C1333.03,-436.074 1330.17,-441.166 1325.87,-444.6C1321.56,-448.033 1316.56,-449.75 1310.85,-449.75Z" style="fill:white;fill-rule:nonzero;"/>
                <path d="M1366.02,-376.772L1366.02,-464.066L1385.23,-464.066L1385.23,-448.528C1386.86,-453.416 1389.85,-457.374 1394.22,-460.4C1398.58,-463.426 1403.27,-464.939 1408.27,-464.939C1411.3,-464.939 1413.8,-464.706 1415.78,-464.241L1415.78,-444.512C1412.99,-445.56 1409.79,-446.084 1406.18,-446.084C1400.36,-446.084 1395.41,-443.727 1391.34,-439.013C1387.26,-434.299 1385.23,-427.752 1385.23,-419.372L1385.23,-376.772L1366.02,-376.772Z" style="fill:white;fill-rule:nonzero;"/>
                <path d="M1495.57,-388.12C1486.84,-379.391 1476.01,-375.026 1463.09,-375.026C1450.17,-375.026 1439.32,-379.42 1430.53,-388.208C1421.75,-396.995 1417.35,-407.732 1417.35,-420.419C1417.35,-433.106 1421.75,-443.843 1430.53,-452.631C1439.32,-461.418 1450.17,-465.812 1463.09,-465.812C1476.01,-465.812 1486.87,-461.418 1495.65,-452.631C1504.44,-443.843 1508.84,-433.106 1508.84,-420.419C1508.84,-407.732 1504.41,-396.966 1495.57,-388.12ZM1463.09,-392.834C1470.66,-392.834 1476.91,-395.482 1481.86,-400.778C1486.81,-406.074 1489.28,-412.621 1489.28,-420.419C1489.28,-428.217 1486.81,-434.764 1481.86,-440.06C1476.91,-445.356 1470.66,-448.004 1463.09,-448.004C1455.41,-448.004 1449.1,-445.356 1444.15,-440.06C1439.2,-434.764 1436.73,-428.217 1436.73,-420.419C1436.73,-412.621 1439.2,-406.074 1444.15,-400.778C1449.1,-395.482 1455.41,-392.834 1463.09,-392.834Z" style="fill:white;fill-rule:nonzero;"/>
                <path d="M1578.5,-374.677C1559.99,-374.677 1544.6,-380.817 1532.32,-393.096C1520.04,-405.375 1513.9,-420.594 1513.9,-438.751C1513.9,-456.908 1520.04,-472.126 1532.32,-484.406C1544.6,-496.685 1559.99,-502.825 1578.5,-502.825C1593.16,-502.825 1605.99,-498.664 1616.99,-490.342C1627.99,-482.02 1635.06,-471.632 1638.2,-459.178L1616.21,-459.178C1613.53,-466.278 1608.76,-472.039 1601.89,-476.462C1595.02,-480.885 1587.23,-483.096 1578.5,-483.096C1565.69,-483.096 1555.16,-478.848 1546.89,-470.351C1538.63,-461.855 1534.5,-451.321 1534.5,-438.751C1534.5,-426.181 1538.63,-415.647 1546.89,-407.15C1555.16,-398.654 1565.69,-394.406 1578.5,-394.406C1587.23,-394.406 1595.02,-396.617 1601.89,-401.04C1608.76,-405.463 1613.53,-411.224 1616.21,-418.324L1638.2,-418.324C1635.06,-405.87 1627.99,-395.482 1616.99,-387.16C1605.99,-378.838 1593.16,-374.677 1578.5,-374.677Z" style="fill:white;fill-rule:nonzero;"/>
                <path d="M1719.74,-388.12C1711.01,-379.391 1700.18,-375.026 1687.26,-375.026C1674.35,-375.026 1663.49,-379.42 1654.7,-388.208C1645.92,-396.995 1641.52,-407.732 1641.52,-420.419C1641.52,-433.106 1645.92,-443.843 1654.7,-452.631C1663.49,-461.418 1674.35,-465.812 1687.26,-465.812C1700.18,-465.812 1711.04,-461.418 1719.83,-452.631C1728.61,-443.843 1733.01,-433.106 1733.01,-420.419C1733.01,-407.732 1728.58,-396.966 1719.74,-388.12ZM1687.26,-392.834C1694.83,-392.834 1701.09,-395.482 1706.03,-400.778C1710.98,-406.074 1713.45,-412.621 1713.45,-420.419C1713.45,-428.217 1710.98,-434.764 1706.03,-440.06C1701.09,-445.356 1694.83,-448.004 1687.26,-448.004C1679.58,-448.004 1673.27,-445.356 1668.32,-440.06C1663.38,-434.764 1660.9,-428.217 1660.9,-420.419C1660.9,-412.621 1663.38,-406.074 1668.32,-400.778C1673.27,-395.482 1679.58,-392.834 1687.26,-392.834Z" style="fill:white;fill-rule:nonzero;"/>
                <path d="M1854.87,-376.772L1854.87,-425.831C1854.87,-432.931 1853.56,-438.46 1850.94,-442.417C1848.32,-446.375 1844.45,-448.353 1839.33,-448.353C1833.16,-448.353 1828.22,-445.967 1824.49,-441.195C1820.77,-436.423 1818.79,-429.73 1818.55,-421.117L1818.55,-376.772L1799.35,-376.772L1799.35,-425.831C1799.35,-432.931 1798.04,-438.46 1795.42,-442.417C1792.8,-446.375 1788.93,-448.353 1783.81,-448.353C1777.41,-448.353 1772.32,-445.851 1768.54,-440.846C1764.75,-435.841 1762.86,-428.799 1762.86,-419.721L1762.86,-376.772L1743.66,-376.772L1743.66,-464.066L1762.86,-464.066L1762.86,-452.194C1768.22,-461.273 1776.48,-465.812 1787.65,-465.812C1800.8,-465.812 1809.83,-460.051 1814.71,-448.528C1817.16,-453.998 1820.91,-458.246 1825.97,-461.273C1831.04,-464.299 1836.6,-465.812 1842.65,-465.812C1852.42,-465.812 1860.11,-462.495 1865.69,-455.86C1871.28,-449.226 1874.07,-440.264 1874.07,-428.974L1874.07,-376.772L1854.87,-376.772Z" style="fill:white;fill-rule:nonzero;"/>
                <path d="M1909.16,-340.283L1889.96,-340.283L1889.96,-464.066L1909.16,-464.066L1909.16,-452.369C1911.84,-456.093 1915.71,-459.265 1920.78,-461.884C1925.84,-464.503 1931.34,-465.812 1937.27,-465.812C1949.15,-465.812 1959.13,-461.389 1967.22,-452.543C1975.31,-443.697 1979.35,-432.989 1979.35,-420.419C1979.35,-407.849 1975.31,-397.141 1967.22,-388.295C1959.13,-379.449 1949.15,-375.026 1937.27,-375.026C1931.34,-375.026 1925.84,-376.336 1920.78,-378.954C1915.71,-381.573 1911.84,-384.745 1909.16,-388.47L1909.16,-340.283ZM1933.78,-392.485C1941.35,-392.485 1947.58,-395.162 1952.46,-400.516C1957.35,-405.87 1959.8,-412.504 1959.8,-420.419C1959.8,-428.334 1957.35,-434.968 1952.46,-440.322C1947.58,-445.676 1941.35,-448.353 1933.78,-448.353C1926.1,-448.353 1919.82,-445.676 1914.93,-440.322C1910.04,-434.968 1907.59,-428.334 1907.59,-420.419C1907.59,-412.504 1910.04,-405.87 1914.93,-400.516C1919.82,-395.162 1926.1,-392.485 1933.78,-392.485Z" style="fill:white;fill-rule:nonzero;"/>
                <rect x="1990.17" y="-507.713" width="19.205" height="130.941" style="fill:white;fill-rule:nonzero;"/>
                <path d="M2065.07,-375.026C2052.04,-375.026 2041.33,-379.304 2032.95,-387.858C2024.57,-396.413 2020.38,-407.267 2020.38,-420.419C2020.38,-433.571 2024.51,-444.425 2032.77,-452.98C2041.04,-461.535 2051.86,-465.812 2065.25,-465.812C2078.75,-465.812 2089.63,-461.127 2097.89,-451.758C2106.16,-442.388 2109.82,-430.371 2108.89,-415.705L2039.41,-415.705C2039.64,-408.954 2042.2,-403.309 2047.09,-398.77C2051.98,-394.231 2058.2,-391.961 2065.77,-391.961C2076.48,-391.961 2083.81,-396.035 2087.77,-404.182L2107.85,-404.182C2105.17,-395.686 2100.05,-388.702 2092.48,-383.232C2084.92,-377.761 2075.78,-375.026 2065.07,-375.026ZM2064.72,-449.75C2058.44,-449.75 2053.05,-447.975 2048.57,-444.425C2044.09,-440.875 2041.21,-435.841 2039.93,-429.323L2088.29,-429.323C2086.9,-436.074 2084.04,-441.166 2079.74,-444.6C2075.43,-448.033 2070.43,-449.75 2064.72,-449.75Z" style="fill:white;fill-rule:nonzero;"/>
                <path d="M2178.38,-376.772L2154.81,-406.277L2131.24,-376.772L2107.85,-376.772L2142.59,-420.245L2109.77,-464.066L2132.64,-464.066L2154.64,-434.735L2176.63,-464.066L2199.68,-464.066L2166.86,-420.245L2201.6,-376.772L2178.38,-376.772Z" style="fill:white;fill-rule:nonzero;"/>
            </g>
        </g>
        <g transform="matrix(1.29333,0,0,1,0,0)">
            <g transform="matrix(-3.17419e-17,0.670443,0.518384,4.10528e-17,84.9672,-144.358)">
                <path d="M1092.58,243.515C1092.58,243.515 1110.28,243.515 1110.28,243.515L1110.28,269.893L1092.58,269.893C1092.58,269.893 1092.58,269.908 1092.58,269.908C1056.27,269.908 1026.79,299.386 1026.79,335.694C1026.79,372.003 1056.27,401.48 1092.58,401.48L1092.58,401.494C1092.58,401.494 1110.28,401.494 1110.28,401.494L1110.28,427.873L1092.58,427.873C1092.58,427.873 1092.58,427.888 1092.58,427.888C1041.69,427.888 1000.38,386.578 1000.38,335.694C1000.38,284.811 1041.69,243.501 1092.58,243.501L1092.58,243.515ZM1092.58,296.271C1092.58,296.271 1110.28,296.271 1110.28,296.271L1110.28,322.725L1092.58,322.725C1092.58,322.725 1092.58,322.74 1092.58,322.74C1085.42,322.74 1079.62,328.544 1079.62,335.694C1079.62,342.844 1085.42,348.649 1092.58,348.649L1092.58,348.664C1092.58,348.664 1110.28,348.664 1110.28,348.664L1110.28,375.118L1092.58,375.118C1092.58,375.118 1092.58,375.134 1092.58,375.134C1070.81,375.134 1053.13,357.462 1053.13,335.694C1053.13,313.927 1070.81,296.254 1092.58,296.254L1092.58,296.271Z" style="fill:rgb(0,67,236);"/>
            </g>
        </g>
        <g transform="matrix(1.29333,0,0,1,0,0)">
            <g transform="matrix(3.17419e-17,-0.670443,-0.518384,-4.10528e-17,446.702,1344.36)">
                <path d="M1092.58,243.515C1092.58,243.515 1110.28,243.515 1110.28,243.515L1110.28,269.893L1092.58,269.893C1092.58,269.893 1092.58,269.908 1092.58,269.908C1056.27,269.908 1026.79,299.386 1026.79,335.694C1026.79,372.003 1056.27,401.48 1092.58,401.48L1092.58,401.494C1092.58,401.494 1110.28,401.494 1110.28,401.494L1110.28,427.873L1092.58,427.873C1092.58,427.873 1092.58,427.888 1092.58,427.888C1041.69,427.888 1000.38,386.578 1000.38,335.694C1000.38,284.811 1041.69,243.501 1092.58,243.501L1092.58,243.515ZM1092.58,296.271C1092.58,296.271 1110.28,296.271 1110.28,296.271L1110.28,322.725L1092.58,322.725C1092.58,322.725 1092.58,322.74 1092.58,322.74C1085.42,322.74 1079.62,329.056 1079.62,336.206C1079.62,343.356 1085.42,349.161 1092.58,349.161L1092.58,349.176C1092.58,349.176 1110.28,349.176 1110.28,349.176L1110.28,375.118L1092.58,375.118C1092.58,375.118 1092.58,375.134 1092.58,375.134C1070.81,375.134 1053.13,357.462 1053.13,335.694C1053.13,313.927 1070.81,296.254 1092.58,296.254L1092.58,296.271Z" style="fill:rgb(0,67,236);"/>
            </g>
        </g>
    </g>
</svg>
