<svg width="24px"  height="24px"  viewBox="0 0 24 24" fill="none" xmlns="http://www.w3.org/2000/svg">
<path d="M19.3236 12.6694C19.3236 18.7826 11.9996 21 11.9996 21C11.9996 21 4.67659 18.7836 4.67659 12.6694C4.67659 6.5552 4.40958 6.0775 4.99858 5.4898C5.58558 4.9012 11.0396 3 11.9996 3C12.9606 3 18.4126 4.8963 19.0016 5.4898C19.5896 6.0824 19.3236 6.5562 19.3236 12.6694Z" stroke="#000000"  stroke-width="1.5"  stroke-linecap="round" stroke-linejoin="round"/>
<path fill-rule="evenodd" clip-rule="evenodd" d="M13.3664 14.3915H10.6334C9.88436 14.3915 9.27637 13.7844 9.27637 13.0352V11.5008C9.27637 10.7516 9.88436 10.1445 10.6334 10.1445H13.3664C14.1154 10.1445 14.7224 10.7516 14.7224 11.5008V13.0352C14.7224 13.7844 14.1154 14.3915 13.3664 14.3915Z" stroke="#000000"  stroke-width="1.5"  stroke-linecap="round" stroke-linejoin="round"/>
<path d="M13.6312 10.1713V9.19725C13.6192 8.29625 12.8802 7.57536 11.9792 7.58606C11.0962 7.59676 10.3832 8.30796 10.3682 9.19046V10.1713" stroke="#000000"  stroke-width="1.5"  stroke-linecap="round" stroke-linejoin="round"/>
</svg>