<svg width="20" height="20" viewBox="0 0 20 20" fill="none" xmlns="http://www.w3.org/2000/svg">
<path d="M11.557 18.1016C11.3988 18.3744 11.1717 18.6008 10.8984 18.7582C10.6251 18.9156 10.3153 18.9984 10 18.9984C9.68466 18.9984 9.37485 18.9156 9.1016 18.7582C8.82834 18.6008 8.60123 18.3744 8.443 18.1016M19 14.5016H1C1.71608 14.5016 2.40284 14.2171 2.90919 13.7108C3.41554 13.2044 3.7 12.5177 3.7 11.8016V7.30159C3.7 5.63072 4.36375 4.02829 5.54523 2.84681C6.72671 1.66533 8.32914 1.00159 10 1.00159C11.6709 1.00159 13.2733 1.66533 14.4548 2.84681C15.6363 4.02829 16.3 5.63072 16.3 7.30159V11.8016C16.3 12.5177 16.5845 13.2044 17.0908 13.7108C17.5972 14.2171 18.2839 14.5016 19 14.5016Z" stroke="#919191" stroke-width="1.5" stroke-linecap="round" stroke-linejoin="round"/>
</svg>
