<svg width="24px"  height="24px"  viewBox="0 0 24 25" fill="none" xmlns="http://www.w3.org/2000/svg">
<path fill-rule="evenodd" clip-rule="evenodd" d="M14.5804 6.99296L11.9174 4.33897C10.5644 2.98597 8.37043 2.98597 7.01643 4.33897L4.11143 7.23698C2.75843 8.58898 2.75843 10.7929 4.11143 12.1449L6.77343 14.808C8.12643 16.162 10.3214 16.162 11.6824 14.808L12.9324 13.5509L11.8224 14.688L13.2664 16.131C13.4264 16.292 13.5304 16.5 13.5624 16.724L13.6734 17.506C13.7384 17.961 14.0914 18.3199 14.5434 18.3919L15.5164 18.548C15.8494 18.602 16.1354 18.8129 16.2864 19.1139L17.0974 20.7439C17.2854 21.1219 17.6814 21.3489 18.1014 21.3219L20.9034 21.1399V19.423C20.9034 18.469 20.5224 17.5579 19.8534 16.8819L14.7194 11.746C15.9254 10.385 15.8904 8.30296 14.5804 6.99296Z" stroke="#000000"  stroke-width="1.5"  stroke-linecap="round" stroke-linejoin="round"/>
<path d="M9.7811 7.40234L7.4541 9.72931" stroke="#000000"  stroke-width="1.5"  stroke-linecap="round" stroke-linejoin="round"/>
</svg>