<svg width="24px"  height="24px"  viewBox="0 0 25 24" fill="none" xmlns="http://www.w3.org/2000/svg">
<path fill-rule="evenodd" clip-rule="evenodd" d="M14.0634 7.99553C14.0634 10.2017 12.275 11.9911 10.0679 11.9911C7.86172 11.9911 6.07324 10.2017 6.07324 7.99553C6.07324 5.78934 7.86172 4 10.0679 4C12.275 4 14.0634 5.78934 14.0634 7.99553Z" stroke="#000000"  stroke-width="1.5"  stroke-linecap="round" stroke-linejoin="round"/>
<path fill-rule="evenodd" clip-rule="evenodd" d="M10.0679 14.875C6.69251 14.875 3.81348 15.3853 3.81348 17.428C3.81348 19.4707 6.67607 19.9991 10.0679 19.9991C13.4417 19.9991 16.3224 19.4872 16.3224 17.4461C16.3224 15.4034 13.4607 14.875 10.0679 14.875Z" stroke="#000000"  stroke-width="1.5"  stroke-linecap="round" stroke-linejoin="round"/>
<path d="M20.4548 9.21442L17.3302 12.3391M20.4867 12.3714L17.2998 9.18359" stroke="#000000"  stroke-width="1.5"  stroke-linecap="round" stroke-linejoin="round"/>
</svg>