<svg viewBox="0 0 601 599" fill="none" class="heart"><path fill-rule="evenodd" clip-rule="evenodd" d="M303.015 90.79C333.27 68.31 371.64 56.278 408.882 54.53c45.93-2.154 95.091 11.183 128.263 46.216 62.7 66.218 60.826 175.447.368 241.89-27.259 29.957-82.501 76.825-129.34 115.089-23.741 19.396-45.853 37.004-62.024 49.76a4367.182 4367.182 0 0 1-19.293 15.135 2497.711 2497.711 0 0 1-5.314 4.134l-1.397 1.084-.363.28-.094.073-.025.019-.007.005c-.002.002-.003.003-16.676-21.579-16.772 21.506-16.773 21.505-16.775 21.503l-.007-.005-.025-.02-.095-.073-.363-.284-1.403-1.098a3004.6 3004.6 0 0 1-5.331-4.187 4431.688 4431.688 0 0 1-19.353-15.33c-16.219-12.921-38.392-30.756-62.187-50.401-46.93-38.747-102.278-86.241-129.427-116.622-59.853-66.98-62.282-175.37.533-241.708 33.367-35.24 82.84-47.84 128.785-45.027 37.265 2.282 75.545 14.837 105.683 37.405zm-.035 415.847l-16.772 21.506 16.693 13.018 16.752-12.942-16.673-21.582zm.08-34.653c2.813-2.208 5.929-4.659 9.307-7.323 16.005-12.625 37.863-30.032 61.298-49.176 47.514-38.816 99.453-83.125 123.504-109.557 42.162-46.336 42.513-123.169.369-167.678-19.251-20.33-51.06-30.877-86.1-29.233-34.988 1.641-68.258 15.288-88.655 36.83l-19.804 20.914-19.803-20.914c-20.554-21.707-54.091-35.87-89.178-38.018-35.159-2.153-66.789 7.962-85.844 28.086-42.03 44.388-41.691 120.609.533 167.86 23.889 26.734 75.856 71.585 123.481 110.904 23.483 19.388 45.397 37.015 61.446 49.8 3.433 2.734 6.595 5.246 9.446 7.505z" fill="#FFB436"></path></svg>
