<svg viewBox="0 0 254 242" fill="none" class="starbasic"><path fill-rule="evenodd" clip-rule="evenodd" d="M127.08.833l10.592 21.588 28.281 57.642 63.701 9.285 23.706 3.455-17.14 16.738-46.007 44.927 10.798 63.278 4.028 23.607-21.206-11.127-56.804-29.806-57.036 29.814-21.182 11.073 4.02-23.561 10.799-63.278-46.008-44.927L.482 92.803l23.707-3.455 63.723-9.289 28.511-57.67L127.08.833zm-.081 53.61L106.39 96.131l-2.756 5.574-6.153.897-46.17 6.729 33.313 32.531 4.446 4.341-1.045 6.125-7.823 45.842 41.351-21.615 5.497-2.874 5.493 2.882 41.09 21.561-7.815-45.796-1.045-6.125 4.445-4.341 33.313-32.531-46.17-6.729-6.175-.901-2.749-5.602-20.438-41.656z" fill="#4EE276"></path></svg>
